<svg width="470" height="179" viewBox="0 0 470 179" fill="none" xmlns="http://www.w3.org/2000/svg">
<path fill-rule="evenodd" clip-rule="evenodd" d="M80.0907 51.2458C72.3046 51.2458 65.9927 57.5578 65.9927 65.3439V107.638C65.9927 115.424 72.3046 121.736 80.0907 121.736H92.2098V137.066C92.2098 140.738 94.6518 143.735 98.0927 142.452C102.11 140.955 107.956 137.381 115.598 129.918C118.445 127.138 120.751 124.387 122.61 121.736H390.248C398.034 121.736 404.346 115.424 404.346 107.638V65.3439C404.346 57.5578 398.034 51.2458 390.248 51.2458H80.0907Z" fill="#FFD88F"/>
<path d="M50.7661 1.78699H151.126C167.704 1.78699 183.133 10.2543 192.037 24.238L233.391 89.1863L192.037 154.135C183.133 168.118 167.704 176.586 151.126 176.586H50.7661C23.9803 176.586 2.26611 154.872 2.26611 128.086V50.287C2.26611 23.5012 23.9803 1.78699 50.7661 1.78699ZM236.948 89.1863L278.302 24.238C287.206 10.2543 302.635 1.78699 319.213 1.78699H419.573C446.358 1.78699 468.073 23.5012 468.073 50.287V128.086C468.073 154.872 446.358 176.586 419.573 176.586H319.213C302.635 176.586 287.206 168.118 278.302 154.135L236.948 89.1863Z" stroke="white" stroke-width="3"/>
</svg>
