<svg width="468" height="275" viewBox="0 0 468 275" fill="none" xmlns="http://www.w3.org/2000/svg">
<circle cx="403.176" cy="139.467" r="62.5575" stroke="white" stroke-width="3"/>
<line x1="213.088" y1="34.0695" x2="339.763" y2="94.2591" stroke="white" stroke-width="3"/>
<line x1="184.838" y1="80.7095" x2="326.759" y2="119.019" stroke="white" stroke-width="3"/>
<line x1="206.646" y1="127.951" x2="326.493" y2="137.972" stroke="white" stroke-width="3"/>
<line x1="197.269" y1="180.958" x2="326.172" y2="163.98" stroke="white" stroke-width="3"/>
<line x1="216.137" y1="228.527" x2="338.614" y2="184.73" stroke="white" stroke-width="3"/>
<rect x="33.8232" y="0.478516" width="168" height="35" rx="7" transform="rotate(3.7574 33.8232 0.478516)" fill="#FFD88F"/>
<path d="M44.0531 43.3525L44.9545 29.627C45.1211 27.0909 47.3121 25.1699 49.8482 25.3365L59.9598 26.0006C62.1577 26.1449 63.9113 27.875 63.2907 29.9884C62.4446 32.8701 60.3555 36.7356 55.8735 40.5722C51.8445 44.0212 48.8316 45.6016 46.7925 46.2128C45.046 46.7363 43.9336 45.1719 44.0531 43.3525Z" fill="#FFD88F"/>
<rect x="0.642334" y="57.407" width="168" height="35" rx="7" transform="rotate(1.0515 0.642334 57.407)" fill="#FFD88F"/>
<path d="M12.6211 100.073L12.8736 86.3202C12.9202 83.779 15.018 81.7568 17.5592 81.8034L27.6909 81.9894C29.8932 82.0298 31.7264 83.6752 31.2064 85.8156C30.4973 88.734 28.5929 92.6938 24.2971 96.7377C20.4354 100.373 17.5005 102.094 15.4925 102.801C13.7726 103.406 12.5877 101.896 12.6211 100.073Z" fill="#FFD88F"/>
<rect x="29.4646" y="111.946" width="168" height="35" rx="7" fill="#FFD88F"/>
<path d="M42.4822 154.557V140.802C42.4822 138.26 44.5426 136.2 47.0842 136.2H57.2176C59.4202 136.2 61.2833 137.811 60.8027 139.961C60.1472 142.892 58.3159 146.886 54.095 151.008C50.3006 154.714 47.3978 156.488 45.4032 157.232C43.6947 157.868 42.4822 156.38 42.4822 154.557Z" fill="#FFD88F"/>
<rect x="15.6593" y="169.281" width="168" height="35" rx="7" transform="rotate(-2.94305 15.6593 169.281)" fill="#FFD88F"/>
<path d="M30.8644 211.496L30.1582 197.759C30.0277 195.221 31.9795 193.057 34.5178 192.927L44.6378 192.406C46.8376 192.293 48.781 193.807 48.4113 195.978C47.9072 198.939 46.2833 203.022 42.2797 207.355C38.6806 211.251 35.8726 213.172 33.9188 214.017C32.2453 214.741 30.958 213.317 30.8644 211.496Z" fill="#FFD88F"/>
<rect x="36.1576" y="229.846" width="168" height="35" rx="7" transform="rotate(-4.86677 36.1576 229.846)" fill="#FFD88F"/>
<path d="M52.5288 271.72L51.3619 258.014C51.1462 255.482 53.0244 253.254 55.5568 253.038L65.6537 252.179C67.8484 251.992 69.8415 253.439 69.5449 255.622C69.1405 258.598 67.6546 262.733 63.7987 267.198C60.3324 271.212 57.5905 273.227 55.6662 274.137C54.0179 274.916 52.6835 273.536 52.5288 271.72Z" fill="#FFD88F"/>
</svg>
