<svg width="500" height="500" viewBox="0 0 500 500" fill="none" xmlns="http://www.w3.org/2000/svg">
<rect width="500" height="500" rx="250" fill="#FDE68A"/>
<path d="M400.12 183.795C409.415 183.795 416.95 191.33 416.95 200.625V321.537C416.95 330.832 409.415 338.366 400.12 338.366H230.948C226.092 345.292 220.066 352.479 212.631 359.74C192.668 379.235 177.396 388.571 166.902 392.482C157.914 395.833 151.535 388.004 151.535 378.411V338.366H99.8809C90.5861 338.366 83.051 330.832 83.0508 321.537V200.625C83.0508 191.33 90.5859 183.795 99.8809 183.795H400.12Z" fill="#FFFBEB"/>
<path d="M416.95 200.625L421.95 200.625L421.95 200.625L416.95 200.625ZM416.95 321.537L421.95 321.537V321.537H416.95ZM230.948 338.366V333.366H228.347L226.854 335.496L230.948 338.366ZM212.631 359.74L216.124 363.317L216.124 363.317L212.631 359.74ZM166.902 392.482L168.649 397.167L168.649 397.167L166.902 392.482ZM151.535 338.366H156.535V333.366H151.535V338.366ZM83.0508 321.537L78.0508 321.537L78.0508 321.537L83.0508 321.537ZM83.0508 200.625L78.0508 200.625V200.625H83.0508ZM400.12 183.795V188.795C406.654 188.795 411.95 194.091 411.95 200.625L416.95 200.625L421.95 200.625C421.95 188.569 412.176 178.795 400.12 178.795V183.795ZM416.95 200.625H411.95V321.537H416.95H421.95V200.625H416.95ZM416.95 321.537L411.95 321.537C411.95 328.07 406.654 333.366 400.12 333.366V338.366V343.366C412.176 343.366 421.95 333.593 421.95 321.537L416.95 321.537ZM400.12 338.366V333.366H230.948V338.366V343.366H400.12V338.366ZM230.948 338.366L226.854 335.496C222.181 342.16 216.358 349.111 209.137 356.163L212.631 359.74L216.124 363.317C223.774 355.846 230.002 348.424 235.042 341.237L230.948 338.366ZM212.631 359.74L209.137 356.163C189.468 375.372 174.772 384.213 165.156 387.797L166.902 392.482L168.649 397.167C180.02 392.929 195.869 383.099 216.124 363.317L212.631 359.74ZM166.902 392.482L165.156 387.797C162.517 388.781 160.742 388.133 159.396 386.777C157.811 385.181 156.535 382.207 156.535 378.411H151.535H146.535C146.535 384.208 148.449 389.945 152.3 393.823C156.39 397.942 162.299 399.534 168.649 397.167L166.902 392.482ZM151.535 378.411H156.535V338.366H151.535H146.535V378.411H151.535ZM151.535 338.366V333.366H99.8809V338.366V343.366H151.535V338.366ZM99.8809 338.366V333.366C93.3472 333.366 88.0509 328.07 88.0508 321.537L83.0508 321.537L78.0508 321.537C78.0511 333.593 87.8249 343.366 99.8809 343.366V338.366ZM83.0508 321.537H88.0508V200.625H83.0508H78.0508V321.537H83.0508ZM83.0508 200.625L88.0508 200.625C88.0508 194.091 93.3474 188.795 99.8809 188.795V183.795V178.795C87.8245 178.795 78.0508 188.569 78.0508 200.625L83.0508 200.625ZM99.8809 183.795V188.795H400.12V183.795V178.795H99.8809V183.795Z" fill="#FBBF24"/>
<path d="M190.925 271.091C196.551 279.53 216.55 296.409 251.535 296.409C286.52 296.409 304.473 279.53 309.076 271.091" stroke="#FBBF24" stroke-width="10"/>
<path d="M191.401 152.184L154.477 88.2281" stroke="#FBBF24" stroke-width="10"/>
<path d="M308.62 152.184L345.545 88.2281" stroke="#FBBF24" stroke-width="10"/>
<path d="M250 152.316L250 78.4661" stroke="#FBBF24" stroke-width="10"/>
</svg>
