<svg width="65" height="83" viewBox="0 0 65 83" fill="none" xmlns="http://www.w3.org/2000/svg">
<path d="M52.5 66.999L11 74.499L43.5 81.499L52.5 66.999Z" fill="black" stroke="black"/>
<path d="M0.809814 64.331L9.77932 38.9824C11.9892 39.2424 18.5928 40.6203 27.3284 44.0521C36.0639 47.484 44.7474 50.9418 47.9972 52.2417L39.0277 77.9803L0.809814 64.331Z" fill="#EAE4D8" stroke="black" stroke-linejoin="bevel"/>
<path d="M22.9046 60.0413L9.7793 38.9824C12.0955 39.2377 18.8126 40.514 27.1511 43.5771C35.4895 46.6402 44.5229 50.7243 47.9972 52.3835L22.9046 60.0413Z" fill="black" stroke="black" stroke-linejoin="bevel"/>
<path d="M39.0277 77.5908L27.3284 53.4121L0.809814 64.3315" stroke="black" stroke-linejoin="bevel"/>
<path d="M34.0998 31.1826L47.6072 52.6314L9.7793 39.2233L34.0998 31.1826Z" fill="black" stroke="black" stroke-linejoin="bevel"/>
<path d="M15.239 46.262L24.1577 17.1436L47.2173 25.7231L37.3943 55.3615L15.239 46.262Z" fill="#FDE047" stroke="black" stroke-linejoin="bevel"/>
<path d="M26.6064 30.1575L30.8719 36.8528L37.9846 33.3269L36.1573 27.3108L33.057 29.0086L31.2809 25.9524L26.6064 30.1575Z" fill="black"/>
<path d="M55.4068 37.4229L49.9471 42.8826L53.8469 42.1026L55.4068 37.4229Z" fill="black" stroke="black"/>
<path d="M51.897 24.5527V30.4024L54.6268 24.5527H51.897Z" fill="black" stroke="black"/>
<path d="M60.8665 28.0625L62.8163 31.9623L63.9863 29.2324L60.8665 28.0625Z" fill="black" stroke="black"/>
<path d="M44.8774 15.9736L47.2173 19.8734V15.9736H44.8774Z" fill="black" stroke="black"/>
<path d="M28.4548 3.7666L26.0416 0.70317L26.1156 3.82212L28.4548 3.7666Z" fill="black"/>
<path d="M56.5767 16.7539L51.897 20.2637H55.0168L56.5767 16.7539Z" fill="black" stroke="black"/>
<path d="M17.52 3.24585L21.3447 0.0343694L18.7455 0.0960574L17.52 3.24585Z" fill="black"/>
<path d="M38.2477 10.9043L39.8076 15.1941L35.9078 12.0742L38.2477 10.9043Z" fill="black" stroke="black"/>
<path d="M34.8037 8.29673L33.1517 4.43505L37.1177 7.17793L34.8037 8.29673Z" fill="black"/>
<path d="M27.3284 11.2943L24.9885 12.4642V8.56445L27.3284 11.2943Z" fill="black" stroke="black"/>
<path d="M44.9311 7.66628L47.2426 6.44116L47.3351 10.3398L44.9311 7.66628Z" fill="black"/>
<path d="M17.9689 17.1436L19.5288 19.8734H15.629L17.9689 17.1436Z" fill="black" stroke="black"/>
<path d="M53.3878 2.39439L51.7728 0.092186L55.6715 -0.000345992L53.3878 2.39439Z" fill="black"/>
<path d="M9.38927 22.6035L10.1692 26.5033L6.65942 24.5534L9.38927 22.6035Z" fill="black" stroke="black"/>
<path d="M60.3567 16.4333L59.4163 13.3349L63.352 14.8019L60.3567 16.4333Z" fill="black"/>
<path d="M9.77934 29.623L10.9493 33.5228L6.26953 33.1329L9.77934 29.623Z" fill="black" stroke="black"/>
<path d="M59.7323 10.2063L58.4701 6.3354L63.1578 6.61423L59.7323 10.2063Z" fill="black"/>
<path d="M13.6791 26.5029V30.7927H15.239L13.6791 26.5029Z" fill="black" stroke="black"/>
<path d="M56.2974 13.4092L56.1863 8.73075L54.6268 8.76777L56.2974 13.4092Z" fill="black"/>
<path d="M33.3523 13.7744L29.0639 13.8845L29.104 15.4439L33.3523 13.7744Z" fill="black" stroke="black"/>
<path d="M39.1288 5.69629L43.1238 5.49883L43.052 4.04609L39.1288 5.69629Z" fill="black"/>
</svg>
