<svg width="38" height="38" viewBox="0 0 38 38" fill="none" xmlns="http://www.w3.org/2000/svg">
<rect x="0.263889" y="0.263889" width="37.4722" height="37.4722" rx="18.7361" fill="white"/>
<rect x="0.263889" y="0.263889" width="37.4722" height="37.4722" rx="18.7361" stroke="#E7E5E4" stroke-width="0.527778"/>
<path d="M8.57232 21V16.5667H9.59199L10.9473 19.3343L12.29 16.5667H13.3097V21H12.4547V18.0233L11.283 20.3793H10.6053L9.42732 18.0233V21H8.57232ZM15.4804 21.076C15.1764 21.076 14.9019 21.0063 14.657 20.867C14.4164 20.7234 14.2242 20.5271 14.0807 20.278C13.9414 20.0247 13.8717 19.7354 13.8717 19.4103C13.8717 19.0768 13.9414 18.7854 14.0807 18.5363C14.2242 18.283 14.4185 18.0867 14.6634 17.9473C14.9082 17.8038 15.1827 17.732 15.4867 17.732C15.7949 17.732 16.0694 17.8038 16.31 17.9473C16.5549 18.0867 16.747 18.283 16.8864 18.5363C17.0299 18.7854 17.1017 19.0747 17.1017 19.404C17.1017 19.7333 17.0299 20.0247 16.8864 20.278C16.747 20.5271 16.5549 20.7234 16.31 20.867C16.0651 21.0063 15.7886 21.076 15.4804 21.076ZM15.4804 20.335C15.6239 20.335 15.7506 20.3012 15.8604 20.2337C15.9744 20.1661 16.063 20.0627 16.1264 19.9233C16.1939 19.784 16.2277 19.6109 16.2277 19.404C16.2277 19.1971 16.1939 19.0261 16.1264 18.891C16.063 18.7517 15.9744 18.6482 15.8604 18.5807C15.7506 18.5089 15.626 18.473 15.4867 18.473C15.3516 18.473 15.227 18.5089 15.113 18.5807C14.999 18.6482 14.9082 18.7517 14.8407 18.891C14.7774 19.0261 14.7457 19.1971 14.7457 19.404C14.7457 19.6109 14.7774 19.784 14.8407 19.9233C14.9082 20.0627 14.9969 20.1661 15.1067 20.2337C15.2207 20.3012 15.3452 20.335 15.4804 20.335ZM17.6486 21V17.808H18.4022L18.4656 18.3273C18.5627 18.15 18.6999 18.0064 18.8772 17.8967C19.0588 17.7869 19.2741 17.732 19.5232 17.732C19.7892 17.732 20.013 17.7869 20.1946 17.8967C20.3761 18.0064 20.5134 18.1669 20.6062 18.378C20.7034 18.5891 20.7519 18.8488 20.7519 19.157V21H19.9032V19.2393C19.9032 18.986 19.8484 18.7918 19.7386 18.6567C19.633 18.5216 19.4684 18.454 19.2446 18.454C19.101 18.454 18.9722 18.4878 18.8582 18.5553C18.7485 18.6229 18.6619 18.72 18.5986 18.8467C18.5352 18.9691 18.5036 19.119 18.5036 19.2963V21H17.6486ZM21.3864 21V17.808H22.2414V21H21.3864ZM21.8171 17.371C21.6651 17.371 21.5384 17.3267 21.4371 17.238C21.34 17.1451 21.2914 17.029 21.2914 16.8897C21.2914 16.7503 21.34 16.6363 21.4371 16.5477C21.5384 16.4548 21.6651 16.4083 21.8171 16.4083C21.9733 16.4083 22.1 16.4548 22.1971 16.5477C22.2984 16.6363 22.3491 16.7503 22.3491 16.8897C22.3491 17.029 22.2984 17.1451 22.1971 17.238C22.1 17.3267 21.9733 17.371 21.8171 17.371ZM24.4607 21.076C24.1398 21.076 23.8548 21.0042 23.6057 20.8607C23.3566 20.7171 23.1624 20.5208 23.0231 20.2717C22.8837 20.0226 22.8141 19.7376 22.8141 19.4167C22.8141 19.0873 22.8837 18.7981 23.0231 18.549C23.1624 18.2957 23.3566 18.0972 23.6057 17.9537C23.8548 17.8059 24.1398 17.732 24.4607 17.732C24.8703 17.732 25.2144 17.8397 25.4931 18.055C25.7717 18.2703 25.9491 18.5659 26.0251 18.9417H25.1194C25.0814 18.7939 25.0012 18.6778 24.8787 18.5933C24.7605 18.5089 24.6191 18.4667 24.4544 18.4667C24.3066 18.4667 24.1736 18.5047 24.0554 18.5807C23.9414 18.6524 23.8506 18.7601 23.7831 18.9037C23.7197 19.043 23.6881 19.2098 23.6881 19.404C23.6881 19.5518 23.7071 19.6848 23.7451 19.803C23.7831 19.917 23.8358 20.0162 23.9034 20.1007C23.9709 20.1809 24.0512 20.2421 24.1441 20.2843C24.2412 20.3266 24.3446 20.3477 24.4544 20.3477C24.5642 20.3477 24.6634 20.3287 24.7521 20.2907C24.8449 20.2527 24.9231 20.1999 24.9864 20.1323C25.0497 20.0606 25.0941 19.974 25.1194 19.8727H26.0251C25.9491 20.24 25.7696 20.5334 25.4867 20.753C25.2081 20.9683 24.8661 21.076 24.4607 21.076ZM27.6491 21.076C27.3831 21.076 27.1635 21.0338 26.9904 20.9493C26.8173 20.8607 26.6885 20.7446 26.6041 20.601C26.5238 20.4532 26.4837 20.2907 26.4837 20.1133C26.4837 19.9191 26.5323 19.7481 26.6294 19.6003C26.7307 19.4526 26.8806 19.3364 27.0791 19.252C27.2817 19.1676 27.5351 19.1253 27.8391 19.1253H28.6307C28.6307 18.9691 28.6096 18.8403 28.5674 18.739C28.5252 18.6334 28.4597 18.5553 28.3711 18.5047C28.2824 18.454 28.1642 18.4287 28.0164 18.4287C27.8559 18.4287 27.7187 18.4646 27.6047 18.5363C27.4949 18.6039 27.4274 18.7094 27.4021 18.853H26.5724C26.5935 18.625 26.6674 18.4287 26.7941 18.264C26.9249 18.0951 27.0959 17.9642 27.3071 17.8713C27.5224 17.7784 27.7609 17.732 28.0227 17.732C28.3225 17.732 28.5822 17.7827 28.8017 17.884C29.0213 17.9853 29.1902 18.131 29.3084 18.321C29.4266 18.511 29.4857 18.7453 29.4857 19.024V21H28.7637L28.6687 20.5123C28.6223 20.5968 28.5674 20.6728 28.5041 20.7403C28.4407 20.8079 28.3668 20.867 28.2824 20.9177C28.1979 20.9683 28.1029 21.0063 27.9974 21.0317C27.8918 21.0612 27.7757 21.076 27.6491 21.076ZM27.8517 20.4173C27.9615 20.4173 28.0586 20.3983 28.1431 20.3603C28.2317 20.3181 28.3077 20.2632 28.3711 20.1957C28.4344 20.1239 28.4829 20.0437 28.5167 19.955C28.5547 19.8621 28.5801 19.7629 28.5927 19.6573V19.651H27.9404C27.8095 19.651 27.7018 19.6679 27.6174 19.7017C27.5372 19.7312 27.4781 19.7756 27.4401 19.8347C27.4021 19.8938 27.3831 19.9613 27.3831 20.0373C27.3831 20.1218 27.4021 20.1914 27.4401 20.2463C27.4781 20.3012 27.5329 20.3434 27.6047 20.373C27.6765 20.4026 27.7588 20.4173 27.8517 20.4173Z" fill="black"/>
</svg>
