<svg width="417" height="220" viewBox="0 0 417 220" fill="none" xmlns="http://www.w3.org/2000/svg">
<circle cx="208.177" cy="110.284" r="107.974" stroke="white" stroke-width="3"/>
<path fill-rule="evenodd" clip-rule="evenodd" d="M14.098 56.6914C6.31191 56.6914 0 63.0033 0 70.7895V113.084C0 120.87 6.3119 127.182 14.098 127.182H26.2172V142.511C26.2172 146.184 28.6591 149.181 32.1 147.898C36.1172 146.401 41.9635 142.827 49.6054 135.364C52.4519 132.584 54.7587 129.833 56.6178 127.182H324.255C332.041 127.182 338.353 120.87 338.353 113.084V70.7895C338.353 63.0033 332.041 56.6914 324.255 56.6914H14.098ZM402.255 92.9917C410.041 92.9917 416.353 99.3036 416.353 107.09V149.384C416.353 157.17 410.041 163.482 402.255 163.482H390.136V178.812C390.136 182.484 387.694 185.481 384.253 184.198C380.236 182.701 374.39 179.127 366.748 171.664C363.901 168.884 361.594 166.133 359.735 163.482H92.0981C84.312 163.482 78 157.17 78 149.384V107.09C78 99.3036 84.3119 92.9917 92.0981 92.9917H402.255Z" fill="#FFD88F"/>
</svg>
