<svg width="436" height="430" viewBox="0 0 436 430" fill="none" xmlns="http://www.w3.org/2000/svg">
<path d="M48.6916 82.4155L214.947 2.35091L381.203 82.4155L422.265 262.319L307.212 406.59H122.682L7.62986 262.319L48.6916 82.4155Z" stroke="white" stroke-width="3"/>
<rect x="149.734" y="392.927" width="130.427" height="27.1723" rx="5.43446" fill="#FFD88F"/>
<path d="M159.84 426.009V415.33C159.84 413.357 161.44 411.757 163.413 411.757H171.28C172.99 411.757 174.436 413.008 174.063 414.677C173.554 416.953 172.132 420.053 168.856 423.254C165.91 426.13 163.656 427.508 162.108 428.085C160.781 428.58 159.84 427.424 159.84 426.009Z" fill="#FFD88F"/>
<rect x="149.734" y="392.927" width="130.427" height="27.1723" rx="5.43446" stroke="#FFD88F" stroke-width="0.776352"/>
<rect x="32.6633" y="271.438" width="130.427" height="27.1723" rx="5.43446" transform="rotate(54 32.6633 271.438)" fill="#FFD88F"/>
<path d="M12.1541 298.831L20.7934 292.554C22.3898 291.394 24.624 291.748 25.7839 293.345L30.408 299.709C31.4131 301.093 31.2512 302.998 29.6818 303.677C27.5418 304.603 24.1975 305.275 19.6824 304.505C15.6235 303.813 13.1843 302.8 11.8071 301.886C10.6275 301.104 11.0089 299.663 12.1541 298.831Z" fill="#FFD88F"/>
<rect y="229.03" width="130.427" height="27.1723" rx="5.43446" transform="rotate(-75 0 229.03)" fill="#FFD88F"/>
<path d="M34.3889 227.989L24.0739 225.225C22.168 224.715 21.0369 222.756 21.5476 220.85L23.5838 213.251C24.0264 211.599 25.6092 210.526 27.1245 211.318C29.1907 212.398 31.8179 214.574 34.0609 218.568C36.0773 222.158 36.8247 224.691 36.9815 226.336C37.1157 227.745 35.7562 228.356 34.3889 227.989Z" fill="#FFD88F"/>
<rect x="70.8418" y="56.3901" width="130.427" height="27.1723" rx="5.43446" transform="rotate(-24 70.8418 56.3901)" fill="#FFD88F"/>
<path d="M93.5298 82.501L89.1863 72.7454C88.3838 70.9429 89.1944 68.831 90.997 68.0284L98.184 64.8286C99.7462 64.133 101.576 64.6876 101.914 66.3639C102.375 68.6496 102.337 72.0606 100.645 76.317C99.1243 80.1433 97.6259 82.3184 96.446 83.4756C95.4354 84.4667 94.1055 83.7942 93.5298 82.501Z" fill="#FFD88F"/>
<rect x="247.857" y="5.27515" width="130.427" height="27.1723" rx="5.43446" transform="rotate(27 247.857 5.27515)" fill="#FFD88F"/>
<path d="M241.727 39.5658L246.575 30.0509C247.471 28.2928 249.623 27.5937 251.381 28.4896L258.39 32.0611C259.914 32.8375 260.635 34.6088 259.545 35.9263C258.058 37.7228 255.384 39.8401 251.011 41.2039C247.08 42.4298 244.447 42.6341 242.805 42.4454C241.399 42.2838 241.085 40.827 241.727 39.5658Z" fill="#FFD88F"/>
<rect x="402.683" y="238.637" width="130.427" height="27.1723" rx="5.43446" transform="rotate(-102 402.683 238.637)" fill="#FFD88F"/>
<path d="M433.362 221.989L422.916 224.209C420.986 224.62 419.089 223.388 418.679 221.457L417.043 213.762C416.688 212.09 417.611 210.415 419.321 210.433C421.652 210.457 424.981 211.203 428.792 213.743C432.219 216.027 434.035 217.945 434.921 219.339C435.681 220.534 434.746 221.695 433.362 221.989Z" fill="#FFD88F"/>
<rect x="312.469" y="373.17" width="130.427" height="27.1723" rx="5.43446" transform="rotate(-51 312.469 373.17)" fill="#FFD88F"/>
<path d="M344.736 386.295L336.437 379.574C334.904 378.332 334.667 376.083 335.909 374.549L340.86 368.435C341.936 367.106 343.819 366.77 344.881 368.11C346.329 369.937 347.844 372.994 348.269 377.554C348.651 381.654 348.303 384.272 347.777 385.839C347.326 387.181 345.836 387.185 344.736 386.295Z" fill="#FFD88F"/>
</svg>
